<?xml version="1.0" encoding="utf-8"?>
<!-- Generator: Adobe Illustrator 25.2.1, SVG Export Plug-In . SVG Version: 6.00 Build 0)  -->
<svg version="1.1" id="Слой_1" xmlns="http://www.w3.org/2000/svg" xmlns:xlink="http://www.w3.org/1999/xlink" x="0px" y="0px"
	 width="71px" height="72.55px" viewBox="0 0 500 500" style="enable-background:new 0 0 500 500;" xml:space="preserve">
<style type="text/css">
	.st0{clip-path:url(#SVGID_2_);}
	.st1{fill:url(#SVGID_3_);}
	.st2{clip-path:url(#SVGID_5_);fill:#DD0A1E;}
</style>
<g>
	<g>
		<g>
			<g>
				<defs>
					<path id="SVGID_1_" d="M255.2,459.2c-7.5-14.3-14.6-27.7-21.7-41c-15-28.1-30-56.2-45-84.4c-16.3-30.6-32.3-61.4-48.9-91.9
						C127.9,220.4,122,198,123,173.7c1.1-25.4,9.5-48.3,25-68.7c16.9-22.3,39.1-37.9,66.5-46.2c23.6-7.2,47.4-7.8,71.4-2.6
						c25.7,5.6,47.5,18,65.5,36.3c18.4,18.7,29.8,41,34.3,66.7c5.9,33.2-3.4,63-19.6,91.8c-9.6,17-18.3,34.6-27.6,51.8
						c-9.3,17.4-18.9,34.8-28.2,52.2c-12.7,23.9-25.3,47.8-38,71.8C266.9,437.3,261.3,447.8,255.2,459.2z"/>
				</defs>
				<clipPath id="SVGID_2_">
					<use xlink:href="#SVGID_1_"  style="overflow:visible;"/>
				</clipPath>
				<g class="st0">
					<g>
						<g>
							
								<linearGradient id="SVGID_3_" gradientUnits="userSpaceOnUse" x1="73.6" y1="348.9" x2="527.2" y2="348.9" gradientTransform="matrix(1 0 0 -1 0 600)">
								<stop  offset="0" style="stop-color:#FF1221"/>
								<stop  offset="0.9947" style="stop-color:#ED1C24"/>
							</linearGradient>
							<ellipse class="st1" cx="300.4" cy="251.1" rx="226.8" ry="219"/>
						</g>
					</g>
				</g>
			</g>
		</g>
	</g>
	<g>
		<g>
			<g>
				<defs>
					<path id="SVGID_4_" d="M293.9,515.1c-8.8-12.5-17.1-24.2-25.4-35.9c-17.5-24.6-35-49.1-52.5-73.7c-19.1-26.7-38-53.9-57.1-80.3
						c-13.5-18.6-24-40.9-31.2-68.3c-7.3-28.6-9.9-57.7-7.4-87c2.6-32.1,10.3-59,23.4-80.3c11.1-18.3,24.7-29.4,40-34.2
						c16.5-5.1,33-0.8,49,11.5c16.5,12.7,30,32.3,40.8,58.8c13.9,34.2,18.1,71.2,17.9,110.1c-0.1,23.1,0.5,46.2,0.7,69.4
						c0.2,23.5,0.2,46.8,0.5,70.2c0.3,32,0.7,64,1,96C293.6,485.7,293.7,499.8,293.9,515.1z"/>
				</defs>
				<clipPath id="SVGID_5_">
					<use xlink:href="#SVGID_4_"  style="overflow:visible;"/>
				</clipPath>
				
					<ellipse transform="matrix(0.9999 -1.544082e-02 1.544082e-02 0.9999 -6.6383 2.413)" class="st2" cx="152.9" cy="431.1" rx="101" ry="336.7"/>
			</g>
		</g>
	</g>
</g>
<g>
	<g>
		<path d="M437.7,87.9c-2.7,2.2-5.1,5.4-8.3,6.6c-39.2,14.2-78.5,28.1-117.8,42.1c-19.2,6.9-38.3,14-57.6,20.7
			c-2.6,0.9-6.2,1-8.9,0.1c-31.2-11-62.2-22.2-93.4-33.3c-12.5-4.5-13.7-4.6-18,7.7c-4.4,12.5-6.6,25.8-9.4,38.8
			c-0.4,1.8,1.1,4.4,2.5,5.9c8.4,8.9,9.9,24.7,1.9,34.2c-3.1,3.8-3.6,7.4-3.2,11.4c2,17.9,4.4,35.7,6.5,53.5c0.8,6.5,1,13,1.6,19.4
			c0.5,4.7-1.3,6.7-6.5,6.6c-9-0.3-18.1-0.3-27.1,0c-5.3,0.2-7.6-2-7.1-6.9c1-10.1,2.1-20.2,3.4-30.3c1.5-12.5,3.1-24.9,4.7-37.4
			c0.3-2.1,0.4-4.3,0.9-6.4c0.8-3.6,0.4-6-2.9-9c-8.7-7.7-8.2-25.8,0.5-33.8c3-2.8,4.2-5.5,4.4-9.5c1.1-16.4,3.9-32.5,11.3-47.6
			c1.2-2.5,2.4-5.1,3.9-8.2c-15.7-5.6-31-11.1-46.4-16.6c-1.9-0.7-4.3-0.7-5.6-1.8c-2.1-1.9-4.7-4.3-5-6.8c-0.2-1.8,2.5-5,4.7-5.9
			c13.6-5.3,27.4-10.2,41.1-15.2c31.5-11.3,63.1-22.6,94.6-33.8c13.6-4.9,27.1-9.9,40.8-14.3c3.4-1.1,7.9-1.4,11.3-0.2
			C304.9,35.7,355,53.9,405,72c7.7,2.8,15.6,5,23.2,8.1c3.5,1.4,6.3,4.3,9.5,6.5C437.7,87,437.7,87.4,437.7,87.9z"/>
	</g>
</g>
</svg>
