<?xml version="1.0" encoding="utf-8"?>
<!-- Generator: Adobe Illustrator 25.2.1, SVG Export Plug-In . SVG Version: 6.00 Build 0)  -->
<svg version="1.1" id="Слой_1" xmlns="http://www.w3.org/2000/svg" xmlns:xlink="http://www.w3.org/1999/xlink" x="0px" y="0px"
	 width="71px" height="72.55px" viewBox="0 0 400 400" style="enable-background:new 0 0 400 400;" xml:space="preserve">
<g>
	<path d="M392,96.3c-0.9,2.8-1.6,5.7-2.7,8.4c-5.7,13.9-18.3,21.9-34.7,21.9c-30.4,0.1-60.9,0-91.3,0c-40.3,0-80.6,0-120.9,0
		c-16.5,0-29.3-8.2-34.9-22.2c-9-22.6,6.6-46.7,31.3-48.3c1.6-0.1,3.2-0.1,4.9-0.1c69.9,0,139.7,0,209.6,0c20.9,0,33.3,9.7,38.3,30
		c0,0.2,0.3,0.4,0.4,0.6C392,89.8,392,93.1,392,96.3z"/>
	<path d="M392,312.6c-1,3.1-1.6,6.3-3,9.1c-6.5,14.1-17.8,21.1-33.2,21.4c-12.6,0.2-25.2,0-37.8,0c-58.6,0-117.3,0-175.9,0
		c-18.5,0-32.7-11-36.4-28.2c-4.4-20.2,10.5-40.4,31.1-42.1c2-0.2,4-0.3,6-0.3c70.5,0,141,0,211.4,0c17.6,0,30.7,8.8,35.9,24
		c0.7,2.1,1.3,4.2,1.9,6.4C392,306.2,392,309.4,392,312.6z"/>
	<path d="M392,204.1c-0.6,2.3-1.1,4.6-1.9,6.8c-5,14.8-18.2,23.9-34.7,24c-62,0-124,0-186,0c-10.1,0-20.2,0.3-30.3-0.1
		c-14.5-0.6-25.2-7.8-31-21c-5.8-13.2-3.8-25.9,5.5-37.1c7.4-8.7,17.1-12.4,28.5-12.3c70.8,0.1,141.7,0,212.6,0c0.1,0,0.2,0,0.4,0
		c19,0.1,32,10.5,36.4,29c0.1,0.6,0.4,1.1,0.6,1.7C392,198.1,392,201.1,392,204.1z"/>
	<path d="M79.2,199.7c0,19.5-15.7,35.1-35.2,35.1c-19.5,0-35.4-15.9-35.3-35.5c0.1-19.4,16-35,35.5-34.9
		C63.7,164.5,79.3,180.2,79.2,199.7z"/>
	<path d="M79.2,307.8c0,19.4-15.5,35.2-35,35.4c-19.3,0.2-35.5-15.9-35.5-35.4c0-19.4,15.9-35.2,35.3-35.2
		C63.5,272.6,79.2,288.3,79.2,307.8z"/>
	<path d="M79.2,91.2c0.1,19.6-15.8,35.5-35.3,35.4c-19.4-0.1-35.2-15.9-35.1-35.3C8.8,72,24.7,56.1,44,56.1
		C63.4,56.1,79.2,71.8,79.2,91.2z"/>
</g>
</svg>
