<?xml version="1.0" encoding="utf-8"?>
<!-- Generator: Adobe Illustrator 25.2.1, SVG Export Plug-In . SVG Version: 6.00 Build 0)  -->
<svg version="1.1" id="Слой_1" xmlns="http://www.w3.org/2000/svg" xmlns:xlink="http://www.w3.org/1999/xlink" x="0px" y="0px"
	 width="71px" height="72.55px" viewBox="0 0 400 400" style="enable-background:new 0 0 400 400;" xml:space="preserve">
<g>
	<path d="M152.1-0.6c10.1,1.8,20.4,3,30.3,5.4c20.1,5,37.9,14.6,53.7,27.8c23.4,19.6,39.3,44,47.2,73.6c8.4,31.6,6.4,62.7-6.3,92.7
		c-4.7,11.1-11.2,21.4-17.2,32.5c3,3.1,6.8,6.8,12.1,7.9c2.3,0.5,5.3,0.3,7.4-0.9c3.4-1.9,6.6-2.1,9.7-0.4c3.9,2.3,7.9,4.8,11,8
		c31.3,32.1,62.4,64.3,93.5,96.5c8.9,9.2,8.7,19.3-0.3,28.2c-8.1,7.9-16.3,15.8-24.5,23.7c-8.6,8.3-19,8.2-27.3-0.4
		c-31.6-32.6-63.2-65.2-94.7-98c-2.9-3-5-7-6.9-10.8c-1.5-3-1-6.1,0.9-9.3c1.1-1.9,1.8-5,1.1-6.9c-1.7-4.5-4.4-8.7-6.2-12.2
		c-11.5,6.5-21.9,13.2-32.9,18.3c-22.4,10.4-46.2,14-70.9,11.9c-29-2.5-54.9-12.9-77.6-31.1c-20.3-16.2-35.1-36.6-44.4-60.9
		c-9.7-25.5-12-51.7-7-78.5c4.7-25,15.4-47.2,32-66.6c17.9-20.9,39.9-35.9,66.3-43.8c10.1-3,20.6-4.2,31-6.3
		c1.3-0.3,2.5-0.4,3.8-0.7C141.2-0.6,146.7-0.6,152.1-0.6z M144.3,44.2c-54.6-0.1-99.4,44.6-99.4,99.3
		c-0.1,54.7,44.5,99.4,99.3,99.5c54.7,0.1,99.3-44.5,99.5-99.3C243.8,89.1,199,44.3,144.3,44.2z"/>
</g>
</svg>
